<svg width="21" height="23" viewBox="0 0 21 23" fill="none" xmlns="http://www.w3.org/2000/svg">
<path d="M1.81781 5.3213H3.81781M3.81781 5.3213H19.8178M3.81781 5.3213V19.3213C3.81781 19.8517 4.02852 20.3604 4.4036 20.7355C4.77867 21.1106 5.28738 21.3213 5.81781 21.3213H15.8178C16.3482 21.3213 16.857 21.1106 17.232 20.7355C17.6071 20.3604 17.8178 19.8517 17.8178 19.3213V5.3213H3.81781ZM6.81781 5.3213V3.3213C6.81781 2.79087 7.02852 2.28216 7.4036 1.90709C7.77867 1.53202 8.28738 1.3213 8.81781 1.3213H12.8178C13.3482 1.3213 13.857 1.53202 14.232 1.90709C14.6071 2.28216 14.8178 2.79087 14.8178 3.3213V5.3213M12.8178 10.3213V16.3213M8.81781 10.3213V16.3213" stroke="white" stroke-width="2" stroke-linecap="round" stroke-linejoin="round"/>
</svg>
