<svg width="12" height="8" viewBox="0 0 12 8" fill="none" xmlns="http://www.w3.org/2000/svg">
<path d="M11 5.41L6.71001 1.17C6.61705 1.07627 6.50645 1.00187 6.38459 0.951106C6.26273 0.900337 6.13202 0.874199 6.00001 0.874199C5.868 0.874199 5.73729 0.900337 5.61543 0.951106C5.49357 1.00187 5.38297 1.07627 5.29001 1.17L1.05001 5.41C0.956281 5.50296 0.881887 5.61356 0.831118 5.73542C0.780349 5.85728 0.754211 5.98799 0.754211 6.12C0.754211 6.25201 0.780349 6.38271 0.831118 6.50457C0.881887 6.62643 0.956281 6.73703 1.05001 6.83C1.23737 7.01625 1.49082 7.12079 1.75501 7.12079C2.0192 7.12079 2.27265 7.01625 2.46001 6.83L6.00001 3.29L9.54001 6.83C9.72627 7.01474 9.97767 7.11889 10.24 7.12C10.3716 7.12076 10.5021 7.09553 10.6239 7.04577C10.7458 6.996 10.8566 6.92268 10.95 6.83C11.0471 6.74038 11.1254 6.63241 11.1805 6.51234C11.2357 6.39226 11.2664 6.26246 11.2711 6.13042C11.2757 5.99839 11.2542 5.86674 11.2076 5.74308C11.1611 5.61943 11.0905 5.50622 11 5.41Z" fill="black"/>
</svg>
