<svg width="21" height="21" viewBox="0 0 21 21" fill="none" xmlns="http://www.w3.org/2000/svg">
<path d="M20.8178 5.56057C20.8186 5.42897 20.7934 5.2985 20.7436 5.17667C20.6938 5.05483 20.6205 4.94401 20.5278 4.85057L16.2878 0.610573C16.1944 0.517892 16.0836 0.444567 15.9617 0.394802C15.8399 0.345038 15.7094 0.319812 15.5778 0.320573C15.4462 0.319812 15.3158 0.345038 15.1939 0.394802C15.0721 0.444567 14.9613 0.517892 14.8678 0.610573L12.0378 3.44057L1.10783 14.3706C1.01515 14.464 0.94182 14.5748 0.892056 14.6967C0.842291 14.8185 0.817066 14.949 0.817827 15.0806V19.3206C0.817827 19.5858 0.923184 19.8401 1.11072 20.0277C1.29826 20.2152 1.55261 20.3206 1.81783 20.3206H6.05783C6.19775 20.3282 6.33772 20.3063 6.46865 20.2563C6.59957 20.2064 6.71854 20.1295 6.81783 20.0306L17.6878 9.10057L20.5278 6.32057C20.6191 6.22365 20.6935 6.11211 20.7478 5.99057C20.7575 5.91086 20.7575 5.83028 20.7478 5.75057C20.7525 5.70402 20.7525 5.65712 20.7478 5.61057L20.8178 5.56057ZM5.64783 18.3206H2.81783V15.4906L12.7478 5.56057L15.5778 8.39057L5.64783 18.3206ZM16.9878 6.98057L14.1578 4.15057L15.5778 2.74057L18.3978 5.56057L16.9878 6.98057Z" fill="white"/>
</svg>
