<svg width="23" height="21" viewBox="0 0 23 21" fill="none" xmlns="http://www.w3.org/2000/svg">
<path d="M20.3029 2.81722C19.7921 2.30623 19.1857 1.90087 18.5182 1.62431C17.8508 1.34775 17.1354 1.2054 16.4129 1.2054C15.6904 1.2054 14.975 1.34775 14.3075 1.62431C13.6401 1.90087 13.0336 2.30623 12.5229 2.81722L11.4629 3.87722L10.4029 2.81722C9.3712 1.78553 7.97192 1.20593 6.51289 1.20593C5.05385 1.20593 3.65458 1.78553 2.62289 2.81722C1.5912 3.84892 1.0116 5.24819 1.0116 6.70722C1.0116 8.16626 1.5912 9.56553 2.62289 10.5972L3.68289 11.6572L11.4629 19.4372L19.2429 11.6572L20.3029 10.5972C20.8139 10.0865 21.2192 9.48004 21.4958 8.81258C21.7724 8.14512 21.9147 7.42971 21.9147 6.70722C21.9147 5.98474 21.7724 5.26933 21.4958 4.60187C21.2192 3.93441 20.8139 3.32798 20.3029 2.81722V2.81722Z" stroke="white" stroke-width="2" stroke-linecap="round" stroke-linejoin="round"/>
</svg>
