<svg width="24" height="21" viewBox="0 0 24 21" fill="none" xmlns="http://www.w3.org/2000/svg">
<path d="M21.206 2.81722C20.6952 2.30623 20.0888 1.90087 19.4213 1.62431C18.7539 1.34775 18.0385 1.2054 17.316 1.2054C16.5935 1.2054 15.8781 1.34775 15.2106 1.62431C14.5432 1.90087 13.9368 2.30623 13.426 2.81722L12.366 3.87722L11.306 2.81722C10.2743 1.78553 8.87503 1.20593 7.41599 1.20593C5.95696 1.20593 4.55769 1.78553 3.52599 2.81722C2.4943 3.84892 1.9147 5.24819 1.9147 6.70722C1.9147 8.16626 2.4943 9.56553 3.52599 10.5972L4.58599 11.6572L12.366 19.4372L20.146 11.6572L21.206 10.5972C21.717 10.0865 22.1223 9.48004 22.3989 8.81258C22.6755 8.14512 22.8178 7.42971 22.8178 6.70722C22.8178 5.98474 22.6755 5.26933 22.3989 4.60187C22.1223 3.93441 21.717 3.32798 21.206 2.81722Z" fill="white" stroke="white" stroke-width="2" stroke-linecap="round" stroke-linejoin="round"/>
</svg>
