<svg width="17" height="17" viewBox="0 0 17 17" fill="none" xmlns="http://www.w3.org/2000/svg">
<path d="M15.0538 7.98969H9.05383V1.98969C9.05383 1.72447 8.94848 1.47011 8.76094 1.28258C8.5734 1.09504 8.31905 0.989685 8.05383 0.989685C7.78862 0.989685 7.53426 1.09504 7.34673 1.28258C7.15919 1.47011 7.05383 1.72447 7.05383 1.98969V7.98969H1.05383C0.788617 7.98969 0.534263 8.09504 0.346726 8.28258C0.15919 8.47011 0.053833 8.72447 0.053833 8.98969C0.053833 9.2549 0.15919 9.50926 0.346726 9.69679C0.534263 9.88433 0.788617 9.98969 1.05383 9.98969H7.05383V15.9897C7.05383 16.2549 7.15919 16.5093 7.34673 16.6968C7.53426 16.8843 7.78862 16.9897 8.05383 16.9897C8.31905 16.9897 8.5734 16.8843 8.76094 16.6968C8.94848 16.5093 9.05383 16.2549 9.05383 15.9897V9.98969H15.0538C15.319 9.98969 15.5734 9.88433 15.7609 9.69679C15.9485 9.50926 16.0538 9.2549 16.0538 8.98969C16.0538 8.72447 15.9485 8.47011 15.7609 8.28258C15.5734 8.09504 15.319 7.98969 15.0538 7.98969Z" fill="black"/>
</svg>
