<svg width="13" height="14" viewBox="0 0 13 14" fill="none" xmlns="http://www.w3.org/2000/svg">
<path d="M11.9208 5.99915H4.33079L7.6308 2.70915C7.8191 2.52084 7.92489 2.26545 7.92489 1.99915C7.92489 1.73285 7.8191 1.47745 7.6308 1.28915C7.44249 1.10084 7.1871 0.995056 6.92079 0.995056C6.65449 0.995056 6.3991 1.10084 6.21079 1.28915L1.21079 6.28915C1.11975 6.38425 1.04839 6.4964 1.00079 6.61915C0.900777 6.86261 0.900777 7.13569 1.00079 7.37915C1.04839 7.5019 1.11975 7.61404 1.21079 7.70915L6.21079 12.7091C6.30376 12.8029 6.41436 12.8773 6.53622 12.928C6.65808 12.9788 6.78878 13.0049 6.92079 13.0049C7.05281 13.0049 7.18351 12.9788 7.30537 12.928C7.42723 12.8773 7.53783 12.8029 7.6308 12.7091C7.72452 12.6162 7.79892 12.5056 7.84969 12.3837C7.90045 12.2619 7.92659 12.1312 7.92659 11.9991C7.92659 11.8671 7.90045 11.7364 7.84969 11.6146C7.79892 11.4927 7.72452 11.3821 7.6308 11.2891L4.33079 7.99915H11.9208C12.186 7.99915 12.4404 7.89379 12.6279 7.70625C12.8154 7.51872 12.9208 7.26436 12.9208 6.99915C12.9208 6.73393 12.8154 6.47958 12.6279 6.29204C12.4404 6.1045 12.186 5.99915 11.9208 5.99915Z" fill="black"/>
</svg>
