<svg width="15" height="12" viewBox="0 0 15 12" fill="none" xmlns="http://www.w3.org/2000/svg">
<path d="M13.7319 1.17464C13.639 1.08092 13.5284 1.00652 13.4065 0.955752C13.2846 0.904983 13.1539 0.878845 13.0219 0.878845C12.8899 0.878845 12.7592 0.904983 12.6373 0.955752C12.5155 1.00652 12.4049 1.08092 12.3119 1.17464L4.86192 8.63464L1.73192 5.49464C1.6354 5.4014 1.52146 5.32809 1.3966 5.27889C1.27175 5.22968 1.13843 5.20555 1.00424 5.20787C0.870064 5.2102 0.737655 5.23892 0.614576 5.29242C0.491498 5.34591 0.380161 5.42312 0.286922 5.51964C0.193684 5.61617 0.12037 5.73011 0.0711659 5.85496C0.0219619 5.97982 -0.00216855 6.11314 0.000152918 6.24732C0.00247438 6.3815 0.0312022 6.51391 0.0846957 6.63699C0.138189 6.76007 0.215401 6.87141 0.311922 6.96464L4.15192 10.8046C4.24489 10.8984 4.35549 10.9728 4.47735 11.0235C4.59921 11.0743 4.72991 11.1004 4.86192 11.1004C4.99393 11.1004 5.12464 11.0743 5.2465 11.0235C5.36836 10.9728 5.47896 10.8984 5.57192 10.8046L13.7319 2.64464C13.8334 2.551 13.9144 2.43735 13.9698 2.31085C14.0252 2.18435 14.0539 2.04775 14.0539 1.90964C14.0539 1.77154 14.0252 1.63494 13.9698 1.50844C13.9144 1.38194 13.8334 1.26829 13.7319 1.17464Z" fill="#6D69A0"/>
</svg>
