<svg width="21" height="22" viewBox="0 0 21 22" fill="none" xmlns="http://www.w3.org/2000/svg">
<path d="M1.46741 5H3.46741M3.46741 5H19.4674M3.46741 5V19C3.46741 19.5304 3.67812 20.0391 4.05319 20.4142C4.42827 20.7893 4.93697 21 5.46741 21H15.4674C15.9978 21 16.5065 20.7893 16.8816 20.4142C17.2567 20.0391 17.4674 19.5304 17.4674 19V5H3.46741ZM6.46741 5V3C6.46741 2.46957 6.67812 1.96086 7.05319 1.58579C7.42827 1.21071 7.93697 1 8.46741 1H12.4674C12.9978 1 13.5065 1.21071 13.8816 1.58579C14.2567 1.96086 14.4674 2.46957 14.4674 3V5M12.4674 10V16M8.46741 10V16" stroke="white" stroke-width="2" stroke-linecap="round" stroke-linejoin="round"/>
</svg>
