<svg width="21" height="19" viewBox="0 0 21 19" fill="none" xmlns="http://www.w3.org/2000/svg">
<path d="M15.3059 7.69968L16.6059 8.98968L5.01587 8.98968C4.75065 8.98968 4.4963 9.09504 4.30876 9.28258C4.12122 9.47011 4.01587 9.72447 4.01587 9.98968C4.01587 10.2549 4.12122 10.5093 4.30876 10.6968C4.4963 10.8843 4.75065 10.9897 5.01587 10.9897L16.6059 10.9897L15.3059 12.2797C15.2121 12.3726 15.1377 12.4832 15.087 12.6051C15.0362 12.727 15.0101 12.8577 15.0101 12.9897C15.0101 13.1217 15.0362 13.2524 15.087 13.3743C15.1377 13.4961 15.2121 13.6067 15.3059 13.6997C15.3988 13.7934 15.5094 13.8678 15.6313 13.9186C15.7532 13.9693 15.8839 13.9955 16.0159 13.9955C16.1479 13.9955 16.2786 13.9693 16.4004 13.9186C16.5223 13.8678 16.6329 13.7934 16.7259 13.6997L19.7259 10.6997C19.8196 10.6067 19.894 10.4961 19.9448 10.3743C19.9955 10.2524 20.0217 10.1217 20.0217 9.98969C20.0217 9.85767 19.9955 9.72697 19.9448 9.60511C19.894 9.48325 19.8196 9.37265 19.7259 9.27969L16.7259 6.27968C16.5376 6.09138 16.2822 5.98559 16.0159 5.98559C15.7496 5.98559 15.4942 6.09138 15.3059 6.27968C15.1176 6.46799 15.0118 6.72338 15.0118 6.98968C15.0118 7.25599 15.1176 7.51138 15.3059 7.69968ZM13.0159 15.9897L13.0159 13.9897C13.0159 13.7245 12.9105 13.4701 12.723 13.2826C12.5354 13.095 12.2811 12.9897 12.0159 12.9897C11.7507 12.9897 11.4963 13.095 11.3088 13.2826C11.1212 13.4701 11.0159 13.7245 11.0159 13.9897L11.0159 15.9897C11.0159 16.2549 10.9105 16.5093 10.723 16.6968C10.5354 16.8843 10.2811 16.9897 10.0159 16.9897L3.01587 16.9897C2.75065 16.9897 2.4963 16.8843 2.30876 16.6968C2.12122 16.5093 2.01587 16.2549 2.01587 15.9897L2.01587 3.98968C2.01587 3.72447 2.12123 3.47011 2.30876 3.28258C2.4963 3.09504 2.75065 2.98968 3.01587 2.98968L10.0159 2.98968C10.2811 2.98968 10.5354 3.09504 10.723 3.28258C10.9105 3.47011 11.0159 3.72447 11.0159 3.98968L11.0159 5.98968C11.0159 6.2549 11.1212 6.50926 11.3088 6.69679C11.4963 6.88433 11.7507 6.98968 12.0159 6.98968C12.2811 6.98968 12.5354 6.88433 12.723 6.69679C12.9105 6.50926 13.0159 6.2549 13.0159 5.98968L13.0159 3.98968C13.0159 3.19404 12.6998 2.43097 12.1372 1.86836C11.5746 1.30576 10.8115 0.989685 10.0159 0.989685L3.01587 0.989684C2.22022 0.989684 1.45716 1.30575 0.894548 1.86836C0.33194 2.43097 0.015869 3.19403 0.015869 3.98968L0.0158685 15.9897C0.0158685 16.7853 0.331939 17.5484 0.894548 18.111C1.45716 18.6736 2.22022 18.9897 3.01587 18.9897L10.0159 18.9897C10.8115 18.9897 11.5746 18.6736 12.1372 18.111C12.6998 17.5484 13.0159 16.7853 13.0159 15.9897Z" fill="#ffffff"/>
</svg>
