<svg width="21" height="20" viewBox="0 0 21 20" fill="none" xmlns="http://www.w3.org/2000/svg">
<path d="M10.0348 0C8.09532 0.00368503 6.19872 0.571311 4.57607 1.63374C2.95341 2.69617 1.67473 4.20754 0.89578 5.98377C0.116825 7.76 -0.128785 9.72442 0.188865 11.6378C0.506515 13.5511 1.37372 15.3308 2.68484 16.76C3.62126 17.775 4.75778 18.5851 6.02278 19.1392C7.28777 19.6933 8.65382 19.9793 10.0348 19.9793C11.4159 19.9793 12.7819 19.6933 14.0469 19.1392C15.3119 18.5851 16.4484 17.775 17.3848 16.76C18.696 15.3308 19.5632 13.5511 19.8808 11.6378C20.1985 9.72442 19.9529 7.76 19.1739 5.98377C18.3949 4.20754 17.1163 2.69617 15.4936 1.63374C13.871 0.571311 11.9744 0.00368503 10.0348 0ZM10.0348 18C7.9633 17.9969 5.97375 17.1903 4.48484 15.75C4.93688 14.6495 5.70587 13.7083 6.69409 13.0459C7.68231 12.3835 8.84515 12.0298 10.0348 12.0298C11.2245 12.0298 12.3874 12.3835 13.3756 13.0459C14.3638 13.7083 15.1328 14.6495 15.5848 15.75C14.0959 17.1903 12.1064 17.9969 10.0348 18ZM8.03484 8C8.03484 7.60444 8.15214 7.21776 8.3719 6.88886C8.59166 6.55996 8.90402 6.30362 9.26947 6.15224C9.63492 6.00087 10.0371 5.96126 10.425 6.03843C10.813 6.1156 11.1693 6.30608 11.4491 6.58579C11.7288 6.86549 11.9192 7.22186 11.9964 7.60982C12.0736 7.99778 12.034 8.39991 11.8826 8.76537C11.7312 9.13082 11.4749 9.44318 11.146 9.66294C10.8171 9.8827 10.4304 10 10.0348 10C9.50441 10 8.9957 9.78929 8.62063 9.41421C8.24555 9.03914 8.03484 8.53043 8.03484 8ZM16.9448 14C16.0514 12.4718 14.6762 11.283 13.0348 10.62C13.544 10.0427 13.8758 9.33066 13.9903 8.56944C14.1049 7.80822 13.9973 7.03011 13.6806 6.3285C13.3639 5.62688 12.8514 5.03156 12.2047 4.61397C11.5581 4.19637 10.8046 3.97425 10.0348 3.97425C9.26505 3.97425 8.51161 4.19637 7.86493 4.61397C7.21825 5.03156 6.70581 5.62688 6.38909 6.3285C6.07237 7.03011 5.96483 7.80822 6.07937 8.56944C6.19391 9.33066 6.52567 10.0427 7.03484 10.62C5.39344 11.283 4.01831 12.4718 3.12484 14C2.41278 12.7871 2.03656 11.4065 2.03484 10C2.03484 7.87827 2.87769 5.84344 4.37799 4.34315C5.87828 2.84285 7.91311 2 10.0348 2C12.1566 2 14.1914 2.84285 15.6917 4.34315C17.192 5.84344 18.0348 7.87827 18.0348 10C18.0331 11.4065 17.6569 12.7871 16.9448 14Z" fill="#ffffff"/>
</svg>
