<svg width="20" height="20" viewBox="0 0 20 20" fill="none" xmlns="http://www.w3.org/2000/svg">
<path d="M18.996 14.7981L16.926 12.6781C16.4808 12.2549 15.9191 11.9745 15.3132 11.8729C14.7074 11.7713 14.085 11.8532 13.526 12.1081L12.626 11.2081C13.6866 9.79106 14.1709 8.02482 13.9816 6.26498C13.7922 4.50514 12.9432 2.88237 11.6054 1.72334C10.2677 0.564317 8.54055 -0.044901 6.77168 0.0183266C5.00281 0.0815541 3.32356 0.812532 2.07199 2.06411C0.820406 3.31569 0.0894277 4.99494 0.0262001 6.76381C-0.0370274 8.53268 0.572191 10.2598 1.73122 11.5976C2.89024 12.9353 4.51301 13.7843 6.27285 13.9737C8.03269 14.163 9.79893 13.6787 11.216 12.6181L12.106 13.5081C11.8211 14.0678 11.719 14.7027 11.8141 15.3235C11.9092 15.9442 12.1967 16.5195 12.636 16.9681L14.756 19.0881C15.3185 19.6499 16.081 19.9655 16.876 19.9655C17.671 19.9655 18.4335 19.6499 18.996 19.0881C19.2818 18.8087 19.5088 18.4751 19.6638 18.1067C19.8188 17.7384 19.8986 17.3428 19.8986 16.9431C19.8986 16.5435 19.8188 16.1479 19.6638 15.7796C19.5088 15.4112 19.2818 15.0775 18.996 14.7981ZM10.516 10.5581C9.81625 11.2561 8.92532 11.7311 7.95576 11.923C6.9862 12.1149 5.98151 12.0151 5.06862 11.6363C4.15572 11.2575 3.37558 10.6167 2.82673 9.79468C2.27788 8.97271 1.98495 8.00651 1.98495 7.01814C1.98495 6.02977 2.27788 5.06358 2.82673 4.2416C3.37558 3.41963 4.15572 2.77876 5.06862 2.39995C5.98151 2.02115 6.9862 1.92139 7.95576 2.11329C8.92532 2.3052 9.81625 2.78014 10.516 3.47814C10.9816 3.9426 11.3511 4.49435 11.6031 5.10181C11.8552 5.70926 11.985 6.36047 11.985 7.01814C11.985 7.67582 11.8552 8.32703 11.6031 8.93448C11.3511 9.54193 10.9816 10.0937 10.516 10.5581ZM17.586 17.6281C17.4931 17.7219 17.3825 17.7963 17.2606 17.847C17.1387 17.8978 17.008 17.9239 16.876 17.9239C16.744 17.9239 16.6133 17.8978 16.4914 17.847C16.3696 17.7963 16.259 17.7219 16.166 17.6281L14.046 15.5081C13.9523 15.4152 13.8779 15.3046 13.8271 15.1827C13.7764 15.0609 13.7502 14.9302 13.7502 14.7981C13.7502 14.6661 13.7764 14.5354 13.8271 14.4136C13.8779 14.2917 13.9523 14.1811 14.046 14.0881C14.139 13.9944 14.2496 13.92 14.3714 13.8693C14.4933 13.8185 14.624 13.7923 14.756 13.7923C14.888 13.7923 15.0187 13.8185 15.1406 13.8693C15.2625 13.92 15.3731 13.9944 15.466 14.0881L17.586 16.2081C17.6797 16.3011 17.7541 16.4117 17.8049 16.5336C17.8557 16.6554 17.8818 16.7861 17.8818 16.9181C17.8818 17.0502 17.8557 17.1809 17.8049 17.3027C17.7541 17.4246 17.6797 17.5352 17.586 17.6281Z" fill="#6D69A0"/>
</svg>
