<svg width="12" height="8" viewBox="0 0 12 8" fill="none" xmlns="http://www.w3.org/2000/svg">
<path d="M11.1716 1.15719C10.9842 0.970936 10.7308 0.866394 10.4666 0.866394C10.2024 0.866394 9.94894 0.970936 9.76158 1.15719L6.17158 4.69719L2.63158 1.15719C2.44422 0.970936 2.19077 0.866394 1.92658 0.866394C1.66239 0.866394 1.40894 0.970936 1.22158 1.15719C1.12785 1.25015 1.05346 1.36075 1.00269 1.48261C0.951919 1.60447 0.925781 1.73517 0.925781 1.86719C0.925781 1.9992 0.951919 2.1299 1.00269 2.25176C1.05346 2.37362 1.12785 2.48422 1.22158 2.57719L5.46158 6.81719C5.55454 6.91091 5.66514 6.98531 5.787 7.03608C5.90886 7.08685 6.03957 7.11298 6.17158 7.11298C6.30359 7.11298 6.4343 7.08685 6.55616 7.03608C6.67802 6.98531 6.78862 6.91091 6.88158 6.81719L11.1716 2.57719C11.2653 2.48422 11.3397 2.37362 11.3905 2.25176C11.4412 2.1299 11.4674 1.9992 11.4674 1.86719C11.4674 1.73517 11.4412 1.60447 11.3905 1.48261C11.3397 1.36075 11.2653 1.25015 11.1716 1.15719Z" fill="black"/>
</svg>
