<svg width="24" height="16" viewBox="0 0 24 16" fill="none" xmlns="http://www.w3.org/2000/svg">
<path fill-rule="evenodd" clip-rule="evenodd" d="M11.054 10.6472H11.8959C12.4856 10.6472 13.0707 10.4999 13.0707 9.7864C13.0707 9.0751 12.4691 8.94021 11.9337 8.94021H9.77784L8.91967 9.78216L8.08962 8.94021H5.37602V11.5087H8.04851L8.91185 10.6585L9.74264 11.5087H11.054V10.6472ZM11.0395 9.46639H11.9192C12.1628 9.46639 12.3318 9.55673 12.3319 9.78134C12.3318 10.0035 12.1706 10.1206 11.9114 10.1206H11.0395V9.46639ZM6.04801 9.93338V9.46639H7.73952L8.47748 10.2149L7.70678 10.9684H6.04801V10.4575H7.52915V9.93338H6.04801ZM10.3795 9.20336V11.2626L9.34365 10.2164L10.3795 9.20336Z" fill="white"/>
<path fill-rule="evenodd" clip-rule="evenodd" d="M16.0558 10.9996C16.053 10.7731 16.0392 10.6561 15.9439 10.5307C15.8863 10.4559 15.7636 10.3655 15.6135 10.3151C15.7911 10.2509 16.0916 10.0417 16.0917 9.63181C16.0917 9.33881 15.9577 9.17847 15.7448 9.06143C15.5234 8.95406 15.2746 8.94024 14.9329 8.94024H13.3754V11.5087H14.0533V10.5707H14.7743C15.0205 10.5707 15.1708 10.5927 15.2693 10.6846C15.3822 10.7921 15.3802 10.9882 15.3787 11.139C15.3785 11.1558 15.3783 11.172 15.3783 11.1874V11.5087H16.0558V10.9996ZM14.91 9.46645C15.0301 9.46645 15.1504 9.46879 15.2319 9.51285C15.3193 9.55445 15.3717 9.63398 15.3717 9.74383C15.3717 9.85368 15.3193 9.94226 15.2319 9.99035C15.1417 10.0391 15.0301 10.0433 14.8989 10.0433H14.0792V9.46645H14.91Z" fill="white"/>
<path d="M17.151 9.47142H18.7309V8.94021H16.4791V11.5087H18.7309V10.9757L17.151 10.9735V10.4624H18.6923V9.93835H17.151V9.47142Z" fill="white"/>
<path d="M19.1506 11.5087H20.4646C21.145 11.5087 21.5245 11.2507 21.5246 10.6982C21.5246 10.4339 21.454 10.2777 21.3228 10.154C21.1699 10.0133 20.9184 9.9555 20.5523 9.94752L20.1891 9.93849C20.0741 9.93849 19.9977 9.93192 19.9265 9.90939C19.8417 9.88091 19.7789 9.81494 19.7789 9.71806C19.7789 9.63663 19.8063 9.57496 19.8803 9.53336C19.9481 9.49111 20.0279 9.48684 20.1505 9.48684H21.3883V8.94024H20.0356C19.3283 8.94024 19.071 9.33238 19.071 9.70494C19.071 10.4644 19.7609 10.4816 20.3662 10.4966C20.4087 10.4977 20.4507 10.4987 20.4921 10.5C20.6095 10.5 20.6808 10.5177 20.7324 10.5569C20.7786 10.5925 20.8147 10.6519 20.8147 10.7269C20.8147 10.7968 20.7814 10.8546 20.735 10.8943C20.6781 10.9425 20.5874 10.9579 20.4594 10.9579H19.1506V11.5087Z" fill="white"/>
<path fill-rule="evenodd" clip-rule="evenodd" d="M2 0C0.895431 0 0 0.895431 0 2V7.0649H0.732754L0.994668 6.49212H2.39944L2.65867 7.0649H4.03101V5.05198L5.01186 7.0649H5.60424L6.5826 5.05376L6.58513 7.0649H7.27668V4.49699H6.15336L5.34221 6.23899L4.45927 4.49699H3.35804V6.92826L2.21063 4.49699H1.20818L0 7.0649L3.07699e-05 5.70282L0.817064 4H2.57649L2.80317 4.42296V4H4.8662L5.31753 4.92504L5.75699 4H12.307C12.6046 4 12.8724 4.05049 13.0689 4.20913V4H14.8618V4.20913C15.1706 4.05522 15.5528 4 15.9877 4H18.5857L18.8267 4.42296V4H20.7501L21.0125 4.42296V4H22.8869V7.58129H20.9929L20.635 7.03954V7.58132H18.2716L18.0149 7.01097H17.4329L17.1704 7.58132H15.9439C15.4627 7.58132 15.097 7.47798 14.8618 7.36334V7.58132H11.9464V6.76859C11.9464 6.65386 11.9242 6.64746 11.8478 6.64504H11.7387L11.7414 7.58129H6.10462V7.13873L5.90197 7.58331H4.72453L4.5221 7.14539V7.5815H2.25396L1.99472 7.01111H1.41274L1.15283 7.5815H0V14C0 15.1046 0.89543 16 2 16H22C23.1046 16 24 15.1046 24 14V10.1973C23.9971 10.1939 23.9944 10.1906 23.9916 10.1872C23.976 10.1686 23.9606 10.1503 23.9374 10.1337C23.7872 9.99298 23.5408 9.93522 23.1719 9.9269L22.8061 9.91804C22.6938 9.91804 22.6174 9.91147 22.5462 9.88894C22.4588 9.8604 22.3987 9.79443 22.3987 9.69761C22.3987 9.61612 22.426 9.55445 22.4972 9.51279C22.5659 9.47063 22.6475 9.46639 22.7702 9.46639L24 9.46645V2C24 0.895431 23.1046 0 22 0H2ZM1.24821 5.95908L1.70733 4.93538L2.16922 5.95908H1.24821ZM21.7803 11.4935H23.0832C23.5153 11.4935 23.8347 11.3831 23.9986 11.1651V11.8328C23.7282 11.9515 23.3729 11.9979 23.0092 11.9979H21.2609V11.7685C21.0584 11.9165 20.6926 11.9979 20.3427 11.9979H14.8312V11.1697C14.8312 11.0682 14.8201 11.0639 14.7085 11.0639H14.621V11.9981H12.8067V11.0309C12.503 11.1503 12.1588 11.1611 11.867 11.1569H11.6507V12L9.4511 11.9982L8.91032 11.4409L8.3363 11.9982H4.76792V8.41403H8.40492L8.92675 8.96256L9.48381 8.41403H11.9185C12.1999 8.41403 12.6618 8.44088 12.8694 8.62383V8.41403H15.0449C15.2492 8.41403 15.6922 8.45155 15.9546 8.62383V8.41403H19.2528V8.62383C19.4168 8.48062 19.7634 8.41403 20.0587 8.41403H21.9056V8.62383C22.0994 8.49613 22.3732 8.41403 22.75 8.41403H23.9986V8.92508H22.6547C21.9467 8.92508 21.6867 9.31722 21.6867 9.68972C21.6867 10.4494 22.3771 10.4664 22.9845 10.4814C23.027 10.4824 23.0691 10.4834 23.1105 10.4847C23.228 10.4847 23.2993 10.5026 23.3482 10.5418C23.398 10.5773 23.4307 10.6368 23.4307 10.7116C23.4312 10.7752 23.4022 10.836 23.3509 10.8791C23.2967 10.9274 23.2066 10.9427 23.0779 10.9427H21.7803V11.4935Z" fill="white"/>
<path fill-rule="evenodd" clip-rule="evenodd" d="M16.0115 4.49685C15.5466 4.49685 15.205 4.59136 14.987 4.79631C14.6968 5.07144 14.6232 5.41957 14.6233 5.80046C14.6233 6.26739 14.7466 6.56274 14.9837 6.78075C15.2189 6.99881 15.6341 7.06478 15.962 7.06478H16.7516L17.0063 6.492H18.4078L18.6704 7.06478H20.0444V5.13746L21.3233 7.06478H22.2794V4.49696H21.5883V6.28536L20.4023 4.49696H19.375V6.92577L18.2327 4.49693H17.2219L16.271 6.51634H15.9679C15.7903 6.51634 15.6015 6.48552 15.4976 6.3839C15.3723 6.25433 15.3121 6.05598 15.3121 5.78086C15.3121 5.51172 15.391 5.30733 15.5061 5.19923C15.64 5.08038 15.7791 5.04707 16.0252 5.04707H16.6647V4.49685H16.0115ZM17.247 5.95908L17.7114 4.93538L18.1783 5.95908H17.247Z" fill="white"/>
<path d="M14.2876 4.49688H13.5992V7.06478H14.2876V4.49688Z" fill="white"/>
<path fill-rule="evenodd" clip-rule="evenodd" d="M12.0472 4.49688H10.4955L10.4956 7.06478H11.1702V6.13075H11.8945C12.1374 6.13075 12.2877 6.15041 12.3863 6.24069C12.4966 6.35164 12.4947 6.54235 12.4931 6.69203C12.493 6.70891 12.4928 6.72526 12.4928 6.74092L12.4953 7.06475H13.1758V6.56028C13.1758 6.33097 13.1594 6.21688 13.0642 6.08915C13.0041 6.01435 12.8779 5.92405 12.7303 5.87292C12.9053 5.80937 13.2057 5.59788 13.2057 5.18842C13.2057 4.90204 13.0777 4.73458 12.8643 4.61987C12.6462 4.5052 12.392 4.49688 12.0472 4.49688ZM12.4919 5.32562C12.4919 5.43783 12.4403 5.5282 12.3528 5.56974C12.2601 5.62096 12.1504 5.62271 12.0191 5.62268H11.1994V5.0523H12.0302C12.1478 5.0523 12.2705 5.05709 12.3502 5.09858C12.4377 5.136 12.4919 5.21565 12.4919 5.32562Z" fill="white"/>
<path d="M10.0295 4.49688H7.77562V7.06475H10.0295V6.5337H8.45037V6.02087H9.99157V5.49448H8.45037V5.03162H10.0295V4.49688Z" fill="white"/>
</svg>
