<svg width="24" height="16" viewBox="0 0 24 16" fill="none" xmlns="http://www.w3.org/2000/svg">
<path fill-rule="evenodd" clip-rule="evenodd" d="M2 0C0.895431 0 0 0.895431 0 2V14C0 15.1046 0.89543 16 2 16H22C23.1046 16 24 15.1046 24 14V2C24 0.895431 23.1046 0 22 0H2ZM15.8213 13.9873C19.1004 13.976 21.7086 11.2747 21.6533 7.94694C21.5983 4.63595 18.9003 1.93604 15.6212 1.94727C14.237 1.95201 12.9763 2.4413 11.9845 3.24741L12.0156 3.27224L11.839 3.27285C10.8237 2.48262 9.5542 2.00807 8.17874 2.01278C4.89963 2.02401 2.29142 4.72537 2.34672 8.05309C2.40202 11.3808 5.09971 14.064 8.37882 14.0528C9.76297 14.048 11.0237 13.5587 12.0155 12.7526L11.984 12.7278L12.161 12.7272C13.1763 13.5174 14.4458 13.992 15.8213 13.9873Z" fill="white"/>
</svg>
