<svg width="24" height="16" viewBox="0 0 24 16" fill="none" xmlns="http://www.w3.org/2000/svg">
<path fill-rule="evenodd" clip-rule="evenodd" d="M0 2C0 0.895431 0.895431 0 2 0H22C23.1046 0 24 0.895431 24 2V14C24 15.1046 23.1046 16 22 16H2C0.89543 16 0 15.1046 0 14V2ZM19.9439 5.10281H16.0935C16.3178 6.37384 17.5514 7.57011 18.8972 7.57011H21.9626C22 7.45798 22 7.27113 22 7.15897C22 6.03748 21.0654 5.10281 19.9439 5.10281ZM16.4299 10.8972V7.79439H21.8878C21.6262 8.61682 20.8411 9.25233 19.9439 9.25233H18.2991V10.8972H16.4299ZM9.85046 5.10281V10.8598H11.4953C11.4953 10.8598 11.9065 10.8598 12.1308 10.4486C13.2523 8.243 13.5888 7.57011 13.5888 7.57011H13.8131V10.8598H15.6822V5.10281H14.0374C14.0374 5.10281 13.6262 5.1402 13.4019 5.51403C12.4673 7.42057 11.9439 8.39253 11.9439 8.39253H11.7196V5.10281H9.85046ZM2 5.1402V10.8972H3.7944V7.79441H4.0187L5.06543 10.8972H5.88786L6.93458 7.79441H7.15889V10.8972H9.02804V5.1402H7.15889C7.15889 5.1402 6.63552 5.1402 6.33645 5.96263C5.66355 7.90655 5.51403 8.42992 5.51403 8.42992C5.51403 8.42992 5.43926 8.13085 4.69159 5.96263C4.39253 5.1402 3.86916 5.1402 3.86916 5.1402H2Z" fill="white"/>
</svg>
