<svg width="24" height="16" viewBox="0 0 24 16" fill="none" xmlns="http://www.w3.org/2000/svg">
<path d="M18.6667 8.84792C18.8129 8.49704 19.3099 7.18125 19.3099 7.18125C19.3099 7.21049 19.4561 6.83038 19.5146 6.6257L19.6316 7.15201C19.6316 7.15201 19.9532 8.58476 20.0117 8.87716H18.6667V8.84792Z" fill="white"/>
<path fill-rule="evenodd" clip-rule="evenodd" d="M2 0C0.895431 0 0 0.895431 0 2V14C0 15.1046 0.89543 16 2 16H22C23.1046 16 24 15.1046 24 14V2C24 0.895431 23.1046 0 22 0H2ZM16.269 9.02338C16.269 10.2514 15.1579 11.0702 13.4327 11.0702C12.7018 11.0702 12 10.924 11.6199 10.7485L11.8538 9.40349L12.0585 9.49121C12.5848 9.72513 12.9357 9.81285 13.5789 9.81285C14.0468 9.81285 14.5439 9.63741 14.5439 9.22806C14.5439 8.9649 14.3392 8.78946 13.6959 8.49706C13.0819 8.20466 12.2632 7.73683 12.2632 6.88887C12.2632 5.71928 13.4035 4.92981 15.0117 4.92981C15.6257 4.92981 16.152 5.04677 16.4737 5.19297L16.2398 6.47952L16.1228 6.36256C15.8304 6.2456 15.4503 6.12864 14.8947 6.12864C14.2807 6.15788 13.9883 6.42104 13.9883 6.65496C13.9883 6.91811 14.3392 7.12279 14.8947 7.38595C15.8304 7.82455 16.269 8.32162 16.269 9.02338ZM20.655 5.01751H19.3977C19.0175 5.01751 18.7251 5.13447 18.5497 5.51459L16.152 10.9824H17.848C17.848 10.9824 18.1404 10.2514 18.1988 10.076H20.2749C20.3333 10.2807 20.4795 10.9532 20.4795 10.9532H22L20.655 5.01751ZM2.02924 4.95907L2 5.07603C3.95906 5.54386 5.24561 6.68421 5.80117 8.08772L5.24561 5.45614C5.15789 5.07603 4.89474 4.95907 4.54386 4.95907H2.02924ZM9.33918 5.01753L6.79532 10.9532H5.07017L3.60819 5.98244C4.66082 6.65496 5.53801 7.70759 5.85965 8.43858L6.03509 9.05262L7.61403 4.98829H9.33918V5.01753ZM11.6199 4.98829H10.0117L8.98831 10.9532H10.5965L11.6199 4.98829Z" fill="white"/>
</svg>
