<svg width="61" height="16" viewBox="0 0 61 16" fill="none" xmlns="http://www.w3.org/2000/svg">
<path d="M0 15.8273H7.53774V15.0067L5.66943 14.4453V9.7598L6.31368 9.93253C7.12971 10.1701 7.9243 10.278 8.67592 10.278C11.5536 10.278 13.7011 8.5722 13.7011 5.61403C13.7011 2.63428 11.3174 0.971661 7.34447 0.971661H0V1.79217L1.76096 2.35357V14.4453L0 15.0067V15.8273ZM5.66943 2.33199H7.02236C9.14841 2.33199 9.70676 2.89339 9.70676 5.61403C9.70676 8.054 9.36317 8.83133 7.51626 8.83133C7.3015 8.83133 7.04384 8.83133 6.78612 8.80973L5.66943 8.72333V2.33199Z" fill="white"/>
<path d="M16.5095 16C17.9913 16 19.2368 14.8988 19.8596 13.8191C19.8596 15.1795 20.7401 15.9568 22.1575 15.9568C23.2097 15.9568 23.8969 15.5681 24.4553 15.2443V14.3806C23.2742 14.2726 23.0809 14.1863 23.0809 13.5385V9.91093C23.0809 6.13225 21.5132 5.00945 18.6355 5.00945C16.7242 5.00945 14.1258 5.80836 14.1258 7.77326C14.1258 8.74493 14.7486 9.43586 15.672 9.43586C16.5095 9.43586 17.1323 8.85293 17.1323 8.0972C17.1323 7.4278 16.7887 6.8016 15.9511 6.62888V6.58569C16.2518 6.49933 16.7672 6.41295 17.4759 6.41295C19.065 6.41295 19.8596 6.78 19.8596 8.31306V9.91093L18.0342 10.2348C15.1136 10.7315 13.8036 11.6383 13.8036 13.5169C13.8036 15.0283 14.9633 16 16.5095 16ZM18.0557 14.0999C17.4115 14.0999 17.0249 13.7976 17.0249 12.9555C17.0249 12.027 17.3685 11.5735 18.4852 11.1633L19.8596 10.6667V13.085C19.3657 13.7328 18.7644 14.0999 18.0557 14.0999Z" fill="white"/>
<path d="M31.5392 15.8273H37.1013V14.6397H36.1778L32.57 9.04727L35.1685 6.54251H36.5429V5.35493H31.5177V6.54251H32.8921L29.3273 10.9474V0H28.5757L24.4525 1.61943V2.09447L26.106 3.02294V14.6397H24.7101V15.8273H30.2722V14.6397H29.3273V12.1781L30.444 11.0985L32.5485 14.6397H31.5392V15.8273Z" fill="white"/>
<path d="M44.3362 15.8273H49.8982V14.6397H48.9748L45.367 9.04727L47.9654 6.54251H49.3399V5.35493H44.3147V6.54251H45.6891L42.1242 10.9474V0H41.3726L37.2494 1.61943V2.09447L38.903 3.02294V14.6397H37.5071V15.8273H43.0691V14.6397H42.1242V12.1781L43.2409 11.0985L45.3455 14.6397H44.3362V15.8273Z" fill="white"/>
<path d="M55.2804 16C58.5876 16 60.9284 13.2793 60.9284 10.4939C60.9284 7.70853 58.5876 5.00945 55.2804 5.00945C51.9733 5.00945 49.6324 7.70853 49.6324 10.4939C49.6324 13.2793 51.9733 16 55.2804 16ZM55.2804 14.7908C53.9919 14.7908 53.2188 14.0783 53.2188 10.4939C53.2188 6.888 54.0134 6.21862 55.2804 6.21862C56.5475 6.21862 57.342 6.8664 57.342 10.4939C57.342 14.0783 56.5689 14.7908 55.2804 14.7908Z" fill="white"/>
</svg>
