<svg width="28" height="28" viewBox="0 0 28 28" fill="none" xmlns="http://www.w3.org/2000/svg">
<path d="M0.575317 28H10.0685C14.57 28 18.2192 24.3508 18.2192 19.8493H8.726C4.2245 19.8493 0.575317 23.4985 0.575317 28Z" fill="#F22BB2"/>
<path d="M1 8.15069V20.137C5.5015 20.137 9.15069 16.4878 9.15069 11.9863V0C4.64919 0 1 3.64919 1 8.15069Z" fill="#9B51E0"/>
<path d="M27.4246 0H17.9314C13.4299 0 9.78076 3.64919 9.78076 8.15068H19.2739C23.7754 8.15068 27.4246 4.5015 27.4246 0Z" fill="#FE9A22"/>
<path d="M27.4246 19.3698V7.38354C22.9231 7.38354 19.2739 11.0327 19.2739 15.5342V27.5205C23.7754 27.5205 27.4246 23.8713 27.4246 19.3698Z" fill="#2EC5CE"/>
</svg>
