<svg width="1110" height="288" viewBox="0 0 1110 288" fill="none" xmlns="http://www.w3.org/2000/svg">
<mask id="mask0" mask-type="alpha" maskUnits="userSpaceOnUse" x="0" y="0" width="1110" height="288">
<path d="M1094 0H16C7.16344 0 0 7.16344 0 16V272C0 280.837 7.16344 288 16 288H1094C1102.84 288 1110 280.837 1110 272V16C1110 7.16344 1102.84 0 1094 0Z" fill="#C4C4C4"/>
</mask>
<g mask="url(#mask0)">
<path d="M1094 0H16C7.16344 0 0 7.16344 0 16V272C0 280.837 7.16344 288 16 288H1094C1102.84 288 1110 280.837 1110 272V16C1110 7.16344 1102.84 0 1094 0Z" fill="#CEB3EB"/>
<path opacity="0.15" d="M730.287 206.714C612.471 122.077 450.106 220.981 321.429 154C254.479 119.15 240.901 87.7018 192.858 35.7142C162.043 2.36914 159.105 -3.43588 129.858 -27.2858C100.61 -51.1357 47.5723 -78.7143 47.5723 -78.7143V-166.143H1432.29V416.286H1101.86C1101.86 416.286 925.373 419.035 840.858 346.857C789.455 302.958 790.597 250.041 730.287 206.714Z" fill="white"/>
<path opacity="0.15" d="M777.857 178.714C660.041 94.0765 497.676 214.838 369 147.857C302.049 113.007 267 -10.5001 247.5 -47.0001C236.815 -67.0001 220.5 -85.0001 194 -99.0001C167.5 -113 95.1426 -106.714 95.1426 -106.714V-194.143H1479.86V351.714H1170C1170 351.714 952.714 358.714 882 308.571C820.285 264.81 838.168 222.041 777.857 178.714Z" fill="white"/>
</g>
</svg>
