<svg width="10" height="16" viewBox="0 0 10 16" fill="none" xmlns="http://www.w3.org/2000/svg">
<path d="M9.09399 7.79688C9.09399 7.66148 9.04199 7.54168 8.93799 7.43748L1.65601 0.15625C1.55201 0.05209 1.432 0 1.297 0C1.162 0 1.04199 0.05209 0.937988 0.15625L0.156006 0.9375C0.0520059 1.04167 0 1.16146 0 1.29688C0 1.4323 0.0520059 1.55209 0.156006 1.65625L6.297 7.79688L0.156006 13.9375C0.0520059 14.0417 0 14.1615 0 14.2969C0 14.4323 0.0520059 14.5521 0.156006 14.6563L0.937988 15.4375C1.04199 15.5417 1.162 15.5938 1.297 15.5938C1.432 15.5938 1.55201 15.5417 1.65601 15.4375L8.93799 8.15628C9.04199 8.05208 9.09399 7.93228 9.09399 7.79688Z" fill="white"/>
</svg>
